<svg width="25" height="23" viewBox="0 0 25 23" fill="none" xmlns="http://www.w3.org/2000/svg">
<mask id="mask0_704_5846" style="mask-type:luminance" maskUnits="userSpaceOnUse" x="0" y="0" width="25" height="24">
<path d="M0.5 1.90735e-06H24.5V24H0.5V1.90735e-06Z" fill="white"/>
</mask>
<g mask="url(#mask0_704_5846)">
<mask id="path-2-inside-1_704_5846" fill="white">
<path d="M5.21287 12.9062H3.375C2.33948 12.9062 1.5 12.0668 1.5 11.0312V1.875C1.5 0.839437 2.33948 0 3.375 0H21.75C22.7856 0 23.625 0.839437 23.625 1.875V11.0312C23.625 12.0668 22.7856 12.9062 21.75 12.9062H19.9375L16.25 16.5938V12.9062H12.5879"/>
</mask>
<path d="M5.21287 11.5062C5.98607 11.5062 6.61287 12.133 6.61287 12.9062C6.61287 13.6794 5.98607 14.3062 5.21287 14.3062V12.9062V11.5062ZM19.9375 12.9062L18.9476 11.9163C19.2101 11.6537 19.5662 11.5062 19.9375 11.5062V12.9062ZM16.25 16.5938L17.24 17.5837C16.8396 17.9841 16.2374 18.1039 15.7143 17.8872C15.1911 17.6705 14.85 17.16 14.85 16.5938H16.25ZM16.25 12.9062V11.5062C17.0232 11.5062 17.65 12.133 17.65 12.9062L16.25 12.9062ZM12.5879 14.3062C11.8147 14.3062 11.1879 13.6794 11.1879 12.9062C11.1879 12.133 11.8147 11.5062 12.5879 11.5062V12.9062V14.3062ZM5.21287 12.9062V14.3062H3.375V12.9062V11.5062H5.21287V12.9062ZM3.375 12.9062V14.3062C1.56631 14.3062 0.1 12.84 0.1 11.0312H1.5H2.9C2.9 11.2936 3.11266 11.5062 3.375 11.5062V12.9062ZM1.5 11.0312H0.1V1.875H1.5H2.9V11.0312H1.5ZM1.5 1.875H0.1C0.1 0.0662155 1.56631 -1.4 3.375 -1.4V0V1.4C3.11266 1.4 2.9 1.61266 2.9 1.875H1.5ZM3.375 0V-1.4H21.75V0V1.4H3.375V0ZM21.75 0V-1.4C23.5588 -1.4 25.025 0.0662384 25.025 1.875H23.625H22.225C22.225 1.61264 22.0124 1.4 21.75 1.4V0ZM23.625 1.875H25.025V11.0312H23.625H22.225V1.875H23.625ZM23.625 11.0312H25.025C25.025 12.84 23.5588 14.3062 21.75 14.3062V12.9062V11.5062C22.0124 11.5062 22.225 11.2936 22.225 11.0312H23.625ZM21.75 12.9062V14.3062H19.9375V12.9062V11.5062H21.75V12.9062ZM19.9375 12.9062L20.9275 13.8962L17.24 17.5837L16.25 16.5938L15.2601 15.6038L18.9476 11.9163L19.9375 12.9062ZM16.25 16.5938H14.85V12.9062H16.25H17.65V16.5938H16.25ZM16.25 12.9062V14.3062H12.5879V12.9062V11.5062H16.25V12.9062Z" fill="white" mask="url(#path-2-inside-1_704_5846)"/>
<path d="M5.125 4.625H19.875" stroke="white" stroke-width="1.4" stroke-miterlimit="10" stroke-linecap="round" stroke-linejoin="round"/>
<path d="M19.875 8.3125H12.5" stroke="white" stroke-width="1.4" stroke-miterlimit="10" stroke-linecap="round" stroke-linejoin="round"/>
<path d="M8.83789 16.8057C10.4879 16.8057 11.8252 15.4683 11.8252 13.8184C11.8252 12.1685 10.4878 10.8311 8.83789 10.8311C7.18798 10.8311 5.8506 12.1685 5.85059 13.8184C5.85059 15.4684 7.18796 16.8057 8.83789 16.8057Z" stroke="white" stroke-width="1.4" stroke-miterlimit="10" stroke-linecap="round" stroke-linejoin="round"/>
<path d="M13.6183 22.3623C13.2788 20.0119 11.257 18.2061 8.81262 18.2061C6.36823 18.2061 4.34642 20.0119 4.00696 22.3623H13.6183Z" stroke="white" stroke-width="1.4" stroke-miterlimit="10" stroke-linecap="round" stroke-linejoin="round"/>
</g>
</svg>
