<svg width="206" height="206" viewBox="0 0 206 206" fill="none" xmlns="http://www.w3.org/2000/svg">
<path d="M120.141 174.07H196.948C200.281 174.07 202.983 171.368 202.983 168.035V39.6514C202.983 36.3184 200.281 33.6162 196.948 33.6162H188.7" stroke="#56A3F7" stroke-width="4" stroke-miterlimit="10" stroke-linejoin="round"/>
<path d="M103 159.787V181.027C103 182.675 104.873 183.624 106.201 182.65L110.38 179.585C111.088 179.065 112.052 179.065 112.76 179.585L116.938 182.65C118.267 183.624 120.14 182.675 120.14 181.027V159.787H103Z" stroke="#56A3F7" stroke-width="4" stroke-miterlimit="10" stroke-linecap="round" stroke-linejoin="round"/>
<path d="M122.635 51.8H169.065" stroke="#56A3F7" stroke-width="4" stroke-miterlimit="10" stroke-linecap="round" stroke-linejoin="round"/>
<path d="M122.635 71.5861H169.065" stroke="#56A3F7" stroke-width="4" stroke-miterlimit="10" stroke-linecap="round" stroke-linejoin="round"/>
<path d="M122.635 91.3722H169.065" stroke="#56A3F7" stroke-width="4" stroke-miterlimit="10" stroke-linecap="round" stroke-linejoin="round"/>
<path d="M122.635 111.158H142.832" stroke="#56A3F7" stroke-width="4" stroke-miterlimit="10" stroke-linecap="round" stroke-linejoin="round"/>
<path d="M122.635 130.944H142.832" stroke="#56A3F7" stroke-width="4" stroke-miterlimit="10" stroke-linecap="round" stroke-linejoin="round"/>
<path d="M69.2031 51.8H83.3656" stroke="#56A3F7" stroke-width="4" stroke-miterlimit="10" stroke-linecap="round" stroke-linejoin="round"/>
<path d="M61.1562 71.5861H83.3656" stroke="#56A3F7" stroke-width="4" stroke-miterlimit="10" stroke-linecap="round" stroke-linejoin="round"/>
<path d="M36.9355 91.3722H83.366" stroke="#56A3F7" stroke-width="4" stroke-miterlimit="10" stroke-linecap="round" stroke-linejoin="round"/>
<path d="M36.9355 111.158H83.366" stroke="#56A3F7" stroke-width="4" stroke-miterlimit="10" stroke-linecap="round" stroke-linejoin="round"/>
<path d="M36.9355 130.944H83.366" stroke="#56A3F7" stroke-width="4" stroke-miterlimit="10" stroke-linecap="round" stroke-linejoin="round"/>
<path d="M46.8281 51.8V71.5861" stroke="#56A3F7" stroke-width="4" stroke-miterlimit="10" stroke-linecap="round" stroke-linejoin="round"/>
<path d="M36.9355 51.8H56.7216" stroke="#56A3F7" stroke-width="4" stroke-miterlimit="10" stroke-linecap="round" stroke-linejoin="round"/>
<path d="M167.857 130.944H156.189C155.523 130.944 154.982 130.404 154.982 129.737V112.365C154.982 111.699 155.523 111.158 156.189 111.158H167.857C168.524 111.158 169.064 111.699 169.064 112.365V129.737C169.064 130.404 168.524 130.944 167.857 130.944Z" stroke="#56A3F7" stroke-width="4" stroke-miterlimit="10" stroke-linecap="round" stroke-linejoin="round"/>
<path d="M44.6602 22.9573H21.3242C19.1021 22.9573 17.3008 24.7586 17.3008 26.9807V155.763C17.3008 157.985 19.1021 159.787 21.3242 159.787H103V33.0159C103 27.4607 98.4966 22.9573 92.9414 22.9573H58.7422" stroke="#56A3F7" stroke-width="4" stroke-miterlimit="10" stroke-linecap="round" stroke-linejoin="round"/>
<path d="M188.699 69.6054V26.9807C188.699 24.7586 186.898 22.9573 184.676 22.9573H113.059C107.503 22.9573 103 27.4607 103 33.0159V159.787H184.676C186.898 159.787 188.699 157.985 188.699 155.763V83.6874" stroke="#56A3F7" stroke-width="4" stroke-miterlimit="10" stroke-linecap="round" stroke-linejoin="round"/>
<path d="M17.3008 33.6162H9.05273C5.71972 33.6162 3.01758 36.3184 3.01758 39.6514V125.245" stroke="#56A3F7" stroke-width="4" stroke-miterlimit="10" stroke-linecap="round" stroke-linejoin="round"/>
<path d="M3.01758 139.327V168.035C3.01758 171.368 5.71972 174.07 9.05273 174.07H103" stroke="#56A3F7" stroke-width="4" stroke-miterlimit="10" stroke-linecap="round" stroke-linejoin="round"/>
</svg>
