<svg width="24" height="24" viewBox="0 0 24 24" fill="none" xmlns="http://www.w3.org/2000/svg">
<path fill-rule="evenodd" clip-rule="evenodd" d="M24 21.25C24 20.2835 23.2325 19.5 22.2857 19.5H1.71428C0.767485 19.5 0 20.2835 0 21.25C0 22.2165 0.767485 23 1.71428 23H22.2857C23.2325 23 24 22.2165 24 21.25ZM24 3.75C24 2.78349 23.2325 2 22.2857 2H1.71428C0.767485 2 0 2.78349 0 3.75C0 4.71649 0.767485 5.5 1.71428 5.5H22.2857C23.2325 5.5 24 4.71649 24 3.75ZM24 12.5C24 11.5335 23.2325 10.75 22.2857 10.75H12C11.0532 10.75 10.2857 11.5335 10.2857 12.5C10.2857 13.4665 11.0532 14.25 12 14.25H22.2857C23.2325 14.25 24 13.4665 24 12.5Z" fill="#56A3F7"/>
</svg>
