<svg width="20" height="20" viewBox="0 0 20 20" fill="none" xmlns="http://www.w3.org/2000/svg">
<path fill-rule="evenodd" clip-rule="evenodd" d="M10 1.6665C14.6024 1.6665 18.3333 5.39746 18.3333 9.99984C18.3333 14.6022 14.6024 18.3332 10 18.3332C5.39768 18.3332 1.66668 14.6022 1.66668 9.99984C1.66668 5.39746 5.39768 1.6665 10 1.6665ZM13.9226 9.41059C14.248 9.736 14.248 10.2637 13.9226 10.5891L10.5893 13.9224C10.2638 14.2478 9.73618 14.2478 9.41076 13.9224C9.08534 13.597 9.08534 13.0693 9.41076 12.7439L11.3215 10.8332L6.66668 10.8332C6.20643 10.8332 5.83334 10.4601 5.83334 9.99984C5.83334 9.53959 6.20643 9.1665 6.66668 9.1665L11.3215 9.1665L9.41076 7.25576C9.08534 6.93032 9.08534 6.40269 9.41076 6.07725C9.73618 5.75181 10.2638 5.75181 10.5893 6.07725L13.9226 9.41059Z" fill="#56A3F7"/>
</svg>
