<svg width="24" height="25" viewBox="0 0 24 25" fill="none" xmlns="http://www.w3.org/2000/svg">
<g clip-path="url(#clip0_1096_5985)">
<path d="M12 0.5C5.38293 0.5 0 5.88293 0 12.5C0 19.1171 5.38293 24.5 12 24.5C18.6171 24.5 24 19.1171 24 12.5C24 5.88293 18.6171 0.5 12 0.5Z" fill="white"/>
<path d="M18.0823 9.95703L11.5822 16.4569C11.3872 16.6519 11.1312 16.7501 10.8752 16.7501C10.6193 16.7501 10.3633 16.6519 10.1683 16.4569L6.91833 13.207C6.52722 12.816 6.52722 12.184 6.91833 11.793C7.30927 11.4019 7.94116 11.4019 8.33228 11.793L10.8752 14.336L16.6683 8.54309C17.0593 8.15198 17.6912 8.15198 18.0823 8.54309C18.4732 8.93402 18.4732 9.56592 18.0823 9.95703Z" fill="#56A3F7"/>
</g>
<defs>
<clipPath id="clip0_1096_5985">
<rect width="24" height="24" fill="white" transform="translate(0 0.5)"/>
</clipPath>
</defs>
</svg>
