<svg width="16" height="17" viewBox="0 0 16 17" fill="none" xmlns="http://www.w3.org/2000/svg">
<mask id="mask0_1090_7224" style="mask-type:luminance" maskUnits="userSpaceOnUse" x="0" y="0" width="16" height="17">
<path d="M0 0.500001H16V16.5H0V0.500001Z" fill="white"/>
</mask>
<g mask="url(#mask0_1090_7224)">
<path d="M3.28125 13.1875V15.0625H15.5312V2.875H3.28125V5.6875H15.5312" stroke="#1A2C50" stroke-width="0.5" stroke-miterlimit="10" stroke-linecap="round" stroke-linejoin="round"/>
<path d="M3.28125 13.1875V15.0625H15.5312V2.875H3.28125V5.6875H15.5312" stroke="black" stroke-opacity="0.2" stroke-width="0.5" stroke-miterlimit="10" stroke-linecap="round" stroke-linejoin="round"/>
<path d="M3.28125 13.1875V15.0625H15.5312V2.875H3.28125V5.6875H15.5312" stroke="black" stroke-opacity="0.2" stroke-width="0.5" stroke-miterlimit="10" stroke-linecap="round" stroke-linejoin="round"/>
<path d="M3.28125 13.1875V15.0625H15.5312V2.875H3.28125V5.6875H15.5312" stroke="black" stroke-opacity="0.2" stroke-width="0.5" stroke-miterlimit="10" stroke-linecap="round" stroke-linejoin="round"/>
<path d="M3.28125 13.1875V15.0625H15.5312V2.875H3.28125V5.6875H15.5312" stroke="black" stroke-opacity="0.2" stroke-width="0.5" stroke-miterlimit="10" stroke-linecap="round" stroke-linejoin="round"/>
<path d="M6.125 1.9375V3.8125" stroke="#1A2C50" stroke-width="0.5" stroke-miterlimit="10" stroke-linecap="round" stroke-linejoin="round"/>
<path d="M6.125 1.9375V3.8125" stroke="black" stroke-opacity="0.2" stroke-width="0.5" stroke-miterlimit="10" stroke-linecap="round" stroke-linejoin="round"/>
<path d="M6.125 1.9375V3.8125" stroke="black" stroke-opacity="0.2" stroke-width="0.5" stroke-miterlimit="10" stroke-linecap="round" stroke-linejoin="round"/>
<path d="M6.125 1.9375V3.8125" stroke="black" stroke-opacity="0.2" stroke-width="0.5" stroke-miterlimit="10" stroke-linecap="round" stroke-linejoin="round"/>
<path d="M6.125 1.9375V3.8125" stroke="black" stroke-opacity="0.2" stroke-width="0.5" stroke-miterlimit="10" stroke-linecap="round" stroke-linejoin="round"/>
<path d="M12.7188 1.9375V3.8125" stroke="#1A2C50" stroke-width="0.5" stroke-miterlimit="10" stroke-linecap="round" stroke-linejoin="round"/>
<path d="M12.7188 1.9375V3.8125" stroke="black" stroke-opacity="0.2" stroke-width="0.5" stroke-miterlimit="10" stroke-linecap="round" stroke-linejoin="round"/>
<path d="M12.7188 1.9375V3.8125" stroke="black" stroke-opacity="0.2" stroke-width="0.5" stroke-miterlimit="10" stroke-linecap="round" stroke-linejoin="round"/>
<path d="M12.7188 1.9375V3.8125" stroke="black" stroke-opacity="0.2" stroke-width="0.5" stroke-miterlimit="10" stroke-linecap="round" stroke-linejoin="round"/>
<path d="M12.7188 1.9375V3.8125" stroke="black" stroke-opacity="0.2" stroke-width="0.5" stroke-miterlimit="10" stroke-linecap="round" stroke-linejoin="round"/>
<path d="M9.40625 1.9375V3.8125" stroke="#1A2C50" stroke-width="0.5" stroke-miterlimit="10" stroke-linecap="round" stroke-linejoin="round"/>
<path d="M9.40625 1.9375V3.8125" stroke="black" stroke-opacity="0.2" stroke-width="0.5" stroke-miterlimit="10" stroke-linecap="round" stroke-linejoin="round"/>
<path d="M9.40625 1.9375V3.8125" stroke="black" stroke-opacity="0.2" stroke-width="0.5" stroke-miterlimit="10" stroke-linecap="round" stroke-linejoin="round"/>
<path d="M9.40625 1.9375V3.8125" stroke="black" stroke-opacity="0.2" stroke-width="0.5" stroke-miterlimit="10" stroke-linecap="round" stroke-linejoin="round"/>
<path d="M9.40625 1.9375V3.8125" stroke="black" stroke-opacity="0.2" stroke-width="0.5" stroke-miterlimit="10" stroke-linecap="round" stroke-linejoin="round"/>
<path d="M3.28125 5.6875C3.28125 10.8438 0.46875 13.1875 0.46875 13.1875H12.7187C12.7187 13.1875 15.5312 10.8438 15.5312 5.6875" stroke="#1A2C50" stroke-width="0.5" stroke-miterlimit="10" stroke-linecap="round" stroke-linejoin="round"/>
<path d="M3.28125 5.6875C3.28125 10.8438 0.46875 13.1875 0.46875 13.1875H12.7187C12.7187 13.1875 15.5312 10.8438 15.5312 5.6875" stroke="black" stroke-opacity="0.2" stroke-width="0.5" stroke-miterlimit="10" stroke-linecap="round" stroke-linejoin="round"/>
<path d="M3.28125 5.6875C3.28125 10.8438 0.46875 13.1875 0.46875 13.1875H12.7187C12.7187 13.1875 15.5312 10.8438 15.5312 5.6875" stroke="black" stroke-opacity="0.2" stroke-width="0.5" stroke-miterlimit="10" stroke-linecap="round" stroke-linejoin="round"/>
<path d="M3.28125 5.6875C3.28125 10.8438 0.46875 13.1875 0.46875 13.1875H12.7187C12.7187 13.1875 15.5312 10.8438 15.5312 5.6875" stroke="black" stroke-opacity="0.2" stroke-width="0.5" stroke-miterlimit="10" stroke-linecap="round" stroke-linejoin="round"/>
<path d="M3.28125 5.6875C3.28125 10.8438 0.46875 13.1875 0.46875 13.1875H12.7187C12.7187 13.1875 15.5312 10.8438 15.5312 5.6875" stroke="black" stroke-opacity="0.2" stroke-width="0.5" stroke-miterlimit="10" stroke-linecap="round" stroke-linejoin="round"/>
</g>
</svg>
