<svg width="24" height="24" viewBox="0 0 24 24" fill="none" xmlns="http://www.w3.org/2000/svg">
<g clip-path="url(#clip0_942_2483)">
<path d="M12 24C18.6274 24 24 18.6274 24 12C24 5.37258 18.6274 0 12 0C5.37258 0 0 5.37258 0 12C0 18.6274 5.37258 24 12 24Z" fill="#4A6EA9"/>
<path d="M10.4905 12.8163H8.92104C8.67472 12.8163 8.5863 12.7263 8.5863 12.4784C8.5863 11.8394 8.5863 11.201 8.5863 10.5631C8.5863 10.3168 8.67946 10.2236 8.92262 10.2236H10.4905V8.84207C10.4719 8.22148 10.6208 7.60733 10.9216 7.06417C11.2342 6.51582 11.7352 6.09953 12.3316 5.89259C12.7186 5.75178 13.1276 5.68119 13.5395 5.68417H15.0916C15.3142 5.68417 15.4074 5.78207 15.4074 5.99996V7.80154C15.4074 8.02733 15.3126 8.11733 15.0916 8.11733C14.6668 8.11733 14.2421 8.11733 13.8189 8.1347C13.3958 8.15207 13.1653 8.3447 13.1653 8.7868C13.1558 9.26049 13.1653 9.7247 13.1653 10.2079H14.9889C15.2479 10.2079 15.3363 10.2963 15.3363 10.5568C15.3363 11.1884 15.3363 11.8231 15.3363 12.461C15.3363 12.7184 15.2542 12.7989 14.9937 12.8005H13.1558V17.9384C13.1558 18.2131 13.0705 18.3 12.7989 18.3H10.8221C10.5837 18.3 10.4905 18.2068 10.4905 17.9684V12.8163Z" fill="white"/>
</g>
<defs>
<clipPath id="clip0_942_2483">
<rect width="24" height="24" fill="white"/>
</clipPath>
</defs>
</svg>
