<svg width="32" height="32" viewBox="0 0 32 32" fill="none" xmlns="http://www.w3.org/2000/svg">
<path d="M9.5 23C9.5 22.4477 9.9477 22 10.5 22H21.5C22.0523 22 22.5 22.4477 22.5 23C22.5 23.5523 22.0523 24 21.5 24H10.5C9.9477 24 9.5 23.5523 9.5 23Z" fill="#56A3F7"/>
<path fill-rule="evenodd" clip-rule="evenodd" d="M20.3197 2.47516C17.7834 0.50828 14.2166 0.50828 11.6803 2.47516L3.68026 8.679C1.99061 9.9893 1 11.9965 1 14.1257V24.0781C1 27.9133 4.14641 31 8 31H24C27.8536 31 31 27.9133 31 24.0781V14.1257C31 11.9965 30.0094 9.9893 28.3197 8.679L20.3197 2.47516ZM12.9059 4.05562C14.7209 2.64813 17.2791 2.64812 19.0941 4.05562L27.0941 10.2594C28.3 11.1945 29 12.6206 29 14.1257V24.0781C29 26.7841 26.7738 29 24 29H8C5.2262 29 3 26.7841 3 24.0781V14.1257C3 12.6206 3.70005 11.1945 4.90588 10.2594L12.9059 4.05562Z" fill="#56A3F7"/>
</svg>
