<svg width="40" height="40" viewBox="0 0 40 40" fill="none" xmlns="http://www.w3.org/2000/svg">
<g clip-path="url(#clip0_1090_25689)">
<path d="M20 40C31.0457 40 40 31.0457 40 20C40 8.9543 31.0457 0 20 0C8.9543 0 0 8.9543 0 20C0 31.0457 8.9543 40 20 40Z" fill="#0084FF"/>
<path d="M32.5 19.5295C32.5 25.9227 26.9023 31.1045 20 31.1045C18.7882 31.1053 17.5819 30.9425 16.4136 30.6204L12.1568 32.9545V28.5409C9.31818 26.4204 7.5 23.1818 7.5 19.5295C7.5 13.1363 13.0977 7.95453 20 7.95453C26.9023 7.95453 32.5 13.1386 32.5 19.5295Z" fill="white"/>
<path d="M28.0749 16.2886L21.2408 23.5386L18.059 20.1455L11.8477 23.5409L18.6817 16.2886L21.9431 19.6818L28.0749 16.2886Z" fill="#2196F3"/>
</g>
<defs>
<clipPath id="clip0_1090_25689">
<rect width="40" height="40" fill="white"/>
</clipPath>
</defs>
</svg>
