<svg width="64" height="64" viewBox="0 0 64 64" fill="none" xmlns="http://www.w3.org/2000/svg">
<rect width="64" height="64" rx="32" fill="white"/>
<g clip-path="url(#clip0_3014_23)">
<path d="M46.9172 27.5638L36.7751 26.6231L32.7464 17.2679C32.4643 16.6128 31.5355 16.6128 31.2535 17.2679L27.2248 26.623L17.0826 27.5638C16.3723 27.6296 16.0854 28.5129 16.6212 28.9837L24.2734 35.7061L22.034 45.6426C21.8772 46.3384 22.6286 46.8843 23.2418 46.5202L31.9998 41.3198L40.7579 46.5202C41.3712 46.8843 42.1225 46.3384 41.9657 45.6426L39.7262 35.7061L47.3784 28.9837C47.9144 28.5128 47.6274 27.6296 46.9172 27.5638Z" fill="#FFDC64"/>
<path d="M21.6327 16.9458C22.1497 17.6641 23.6091 20.7482 24.4434 22.5456C24.5746 22.8282 24.22 23.0834 23.9937 22.8694C22.5539 21.508 20.0919 19.1455 19.575 18.4274C19.1658 17.8591 19.2949 17.0668 19.8631 16.6578C20.4312 16.2486 21.2235 16.3776 21.6327 16.9458Z" fill="#FFF082"/>
<path d="M42.3683 16.9458C41.8513 17.6641 40.3919 20.7482 39.5576 22.5456C39.4264 22.8282 39.781 23.0834 40.0073 22.8694C41.4472 21.508 43.9091 19.1455 44.4261 18.4274C44.8352 17.8591 44.7061 17.0668 44.1379 16.6578C43.5696 16.2486 42.7774 16.3776 42.3683 16.9458Z" fill="#FFF082"/>
<path d="M50.539 38.0054C49.6977 37.731 46.3159 37.2777 44.35 37.029C44.041 36.9898 43.9055 37.4051 44.1782 37.5558C45.9128 38.5139 48.9115 40.1416 49.7528 40.416C50.4186 40.6331 51.1343 40.2694 51.3513 39.6037C51.5683 38.9381 51.2046 38.2225 50.539 38.0054Z" fill="#FFF082"/>
<path d="M13.462 38.0054C14.3034 37.731 17.6852 37.2777 19.651 37.029C19.9601 36.9898 20.0956 37.4051 19.8228 37.5558C18.0883 38.5139 15.0895 40.1416 14.2482 40.416C13.5825 40.6331 12.8668 40.2694 12.6498 39.6037C12.4326 38.9381 12.7963 38.2225 13.462 38.0054Z" fill="#FFF082"/>
<path d="M30.7715 52.3139C30.7715 51.429 31.3892 48.0733 31.7623 46.1272C31.8209 45.8212 32.2577 45.8212 32.3164 46.1272C32.6895 48.0733 33.3072 51.429 33.3072 52.3139C33.3072 53.0141 32.7395 53.5818 32.0393 53.5818C31.3391 53.5817 30.7715 53.0141 30.7715 52.3139Z" fill="#FFF082"/>
<path d="M34.2113 20.6699L32.7464 17.2679C32.4643 16.6128 31.5355 16.6128 31.2535 17.2679L27.2248 26.623L17.0826 27.5638C16.3723 27.6296 16.0854 28.5129 16.6212 28.9837L24.2734 35.7061L22.034 45.6426C21.8772 46.3384 22.6286 46.8843 23.2418 46.5202L24.4075 45.828C26.3184 33.4578 31.6907 24.3773 34.2113 20.6699Z" fill="#FFC850"/>
<path d="M40.3746 35.9166L47.7653 29.4238C48.1919 29.0491 48.3479 28.4808 48.1725 27.9409C47.9971 27.4008 47.5367 27.0328 46.9714 26.9804L37.1756 26.0718L35.3414 21.8124C35.2134 21.5152 34.8689 21.3779 34.5715 21.506C34.2743 21.634 34.1371 21.9786 34.2651 22.2758L36.237 26.8547C36.3218 27.0517 36.5075 27.1866 36.721 27.2064L46.8631 28.1471C46.9925 28.1591 47.0407 28.2498 47.0579 28.3029C47.0752 28.3559 47.0895 28.4576 46.9918 28.5433L39.3396 35.2658C39.1785 35.4074 39.1076 35.6256 39.1548 35.8349L41.3942 45.7712C41.4228 45.898 41.3514 45.9718 41.3063 46.0047C41.2611 46.0374 41.1689 46.0826 41.0572 46.0161L32.299 40.8159C32.1147 40.7065 31.885 40.7065 31.7007 40.8159L22.9428 46.0162C22.8312 46.0827 22.7389 46.0375 22.6936 46.0047C22.6485 45.972 22.5771 45.8981 22.6056 45.7715L23.7617 40.6423C23.8329 40.3266 23.6346 40.013 23.319 39.9418C23.0031 39.8708 22.6896 40.069 22.6185 40.3846L21.4624 45.5138C21.3376 46.0677 21.5455 46.6191 22.0048 46.9528C22.2526 47.1329 22.5379 47.2237 22.8249 47.2236C23.0699 47.2236 23.3162 47.1574 23.541 47.0239L31.9999 42.0011L40.4589 47.0239C40.9471 47.3137 41.5357 47.2865 41.9949 46.9528C42.4543 46.6191 42.6621 46.0676 42.5373 45.5137L40.3746 35.9166Z" fill="black"/>
<path d="M16.2348 29.4237L23.6256 35.9165L23.1453 38.0481C23.0741 38.3637 23.2724 38.6774 23.5881 38.7485C23.6314 38.7583 23.6747 38.763 23.7174 38.763C23.9853 38.763 24.2271 38.5781 24.2885 38.3057L24.8453 35.8347C24.8925 35.6255 24.8216 35.4072 24.6605 35.2658L17.0083 28.5433C16.9107 28.4575 16.9251 28.3558 16.9422 28.3028C16.9595 28.2497 17.0077 28.159 17.137 28.147L27.279 27.2063C27.4925 27.1865 27.6782 27.0516 27.7631 26.8547L31.7919 17.4997C31.8432 17.3804 31.9445 17.3625 32.0002 17.3625C32.056 17.3625 32.1572 17.3804 32.2085 17.4997L33.3028 20.0405C33.4308 20.3377 33.7754 20.475 34.0727 20.3469C34.3699 20.2189 34.5071 19.8742 34.3791 19.577L33.2849 17.0361C33.0603 16.5147 32.568 16.1907 32.0002 16.1907C31.4324 16.1907 30.9402 16.5146 30.7156 17.0361L26.8244 26.0718L17.0287 26.9804C16.4633 27.0328 16.0031 27.4008 15.8276 27.9408C15.6522 28.4808 15.8083 29.049 16.2348 29.4237Z" fill="black"/>
<path d="M24.6486 24.2891C24.7605 24.3932 24.9038 24.4461 25.0479 24.4461C25.1673 24.4461 25.2873 24.4097 25.3901 24.3356C25.6167 24.1724 25.6967 23.8719 25.5812 23.6176C25.3049 23.0098 22.8605 17.6494 22.1076 16.6035C21.8183 16.2016 21.3898 15.9365 20.9011 15.8569C20.4119 15.7772 19.9219 15.8927 19.52 16.1822C18.6905 16.7794 18.5015 17.9401 19.0986 18.7697C19.8516 19.8156 24.1598 23.8344 24.6486 24.2891ZM20.2047 17.1333C20.322 17.0488 20.4599 17.0047 20.6017 17.0047C20.6386 17.0047 20.6756 17.0076 20.7127 17.0137C20.8926 17.0429 21.0501 17.1404 21.1566 17.2883C21.5109 17.7804 22.4109 19.61 23.2253 21.3288C21.8536 20.011 20.4041 18.5772 20.0498 18.0851C19.8301 17.78 19.8996 17.353 20.2047 17.1333Z" fill="black"/>
<path d="M38.6099 24.3356C38.7126 24.4096 38.8327 24.4461 38.9521 24.4461C39.0962 24.4461 39.2397 24.3931 39.3514 24.2891C39.8401 23.8344 44.1482 19.8157 44.9012 18.7698C45.4984 17.9403 45.3094 16.7796 44.4798 16.1823C44.0778 15.893 43.5872 15.7774 43.0987 15.8571C42.61 15.9367 42.1816 16.2019 41.8923 16.6037C41.1393 17.6495 38.6949 23.01 38.4187 23.6178C38.3033 23.8719 38.3832 24.1724 38.6099 24.3356ZM42.8434 17.2883C42.9498 17.1404 43.1073 17.0429 43.2872 17.0136C43.3243 17.0076 43.3613 17.0046 43.3982 17.0046C43.54 17.0046 43.6779 17.0487 43.7952 17.1332C44.1003 17.353 44.1698 17.7799 43.9502 18.0851C43.5959 18.5772 42.1462 20.011 40.7746 21.3288C41.5891 19.61 42.4891 17.7805 42.8434 17.2883Z" fill="black"/>
<path d="M51.7978 38.3711C51.5735 37.9296 51.1907 37.6019 50.7199 37.4484V37.4483C49.4948 37.0488 43.6449 36.3487 42.9821 36.2702C42.7056 36.2376 42.4428 36.4048 42.3561 36.6704C42.2695 36.9359 42.3824 37.2256 42.6257 37.3627C43.2075 37.6901 48.3453 40.5736 49.5704 40.973C49.7596 41.0348 49.9538 41.0654 50.1472 41.0654C50.4351 41.0654 50.721 40.9976 50.985 40.8634C51.4265 40.6391 51.7542 40.2562 51.9077 39.7855C52.0611 39.3148 52.0221 38.8126 51.7978 38.3711ZM50.7935 39.4222C50.7371 39.5954 50.6166 39.7362 50.4542 39.8187C50.2917 39.9012 50.1069 39.9155 49.9338 39.859C49.3574 39.671 47.5509 38.7255 45.8786 37.8193C47.7637 38.0731 49.7802 38.3744 50.3567 38.5626C50.5299 38.6191 50.6706 38.7396 50.7531 38.902C50.8357 39.0643 50.85 39.249 50.7935 39.4222Z" fill="black"/>
<path d="M21.6438 36.6705C21.5572 36.405 21.2952 36.2371 21.0178 36.2703C20.3549 36.3488 14.505 37.0489 13.2799 37.4484V37.4485C12.8092 37.602 12.4263 37.9296 12.202 38.3712C11.9777 38.8126 11.9388 39.315 12.0923 39.7857C12.2458 40.2564 12.5735 40.6392 13.015 40.8635C13.2791 40.9978 13.5649 41.0656 13.8528 41.0656C14.0462 41.0656 14.2404 41.035 14.4295 40.9733C15.6548 40.5738 20.7924 37.6903 21.3743 37.3628C21.6175 37.2257 21.7304 36.936 21.6438 36.6705ZM14.066 39.8591C13.8928 39.9155 13.708 39.901 13.5457 39.8187C13.3834 39.7361 13.2629 39.5954 13.2063 39.4221C13.1499 39.249 13.1642 39.0643 13.2467 38.9018C13.3293 38.7395 13.47 38.6189 13.6432 38.5625C14.2198 38.3744 16.2362 38.073 18.1213 37.8192C16.4492 38.7257 14.6426 39.671 14.066 39.8591Z" fill="black"/>
<path d="M32.0393 44.1211C31.76 44.1211 31.5195 44.3182 31.4648 44.5921C31.3338 45.2468 30.1855 51.0253 30.1855 52.3139C30.1855 53.3361 31.0172 54.1677 32.0393 54.1677C33.0615 54.1677 33.893 53.336 33.893 52.3139C33.893 51.0252 32.7448 45.2467 32.6138 44.5921C32.5591 44.3182 32.3186 44.1211 32.0393 44.1211ZM32.0393 52.9958C31.6633 52.9958 31.3573 52.6898 31.3573 52.3138C31.3573 51.7074 31.6961 49.6968 32.0393 47.8261C32.3825 49.6968 32.7213 51.7075 32.7213 52.3138C32.7213 52.6898 32.4153 52.9958 32.0393 52.9958Z" fill="black"/>
</g>
<defs>
<clipPath id="clip0_3014_23">
<rect width="40" height="40" fill="white" transform="translate(12 15)"/>
</clipPath>
</defs>
</svg>
