<svg width="24" height="24" viewBox="0 0 24 24" fill="none" xmlns="http://www.w3.org/2000/svg">
<g clip-path="url(#clip0_1090_40140)">
<path d="M5.14912 21.0235L3.97517 22.8299C3.74795 23.1821 3.84642 23.6516 4.19861 23.8788C4.32736 23.9621 4.46751 24 4.61138 24C4.86131 24 5.10371 23.8788 5.24759 23.6554L6.39503 21.8907C8.03854 22.8677 9.95475 23.432 11.9997 23.432C14.0485 23.432 15.9646 22.8677 17.6044 21.8869L18.748 23.6517C18.8919 23.8751 19.1381 23.9963 19.3843 23.9963C19.5244 23.9963 19.6683 23.9584 19.797 23.8751C20.1492 23.6479 20.2477 23.1783 20.0205 22.8261L18.8503 21.0198C21.3648 19.0089 22.9818 15.915 22.9818 12.4499C22.9818 6.39457 18.055 1.46777 11.9997 1.46777C5.94438 1.46777 1.01758 6.39451 1.01758 12.4498C1.01758 15.9149 2.63459 19.0088 5.14912 21.0235ZM11.9997 2.98246C17.2219 2.98246 21.4671 7.22765 21.4671 12.4498C21.4671 17.672 17.2219 21.9172 11.9997 21.9172C6.77752 21.9172 2.53233 17.672 2.53233 12.4498C2.53233 7.22765 6.77752 2.98246 11.9997 2.98246Z" fill="#1A2C50"/>
<path d="M5.14912 21.0235L3.97517 22.8299C3.74795 23.1821 3.84642 23.6516 4.19861 23.8788C4.32736 23.9621 4.46751 24 4.61138 24C4.86131 24 5.10371 23.8788 5.24759 23.6554L6.39503 21.8907C8.03854 22.8677 9.95475 23.432 11.9997 23.432C14.0485 23.432 15.9646 22.8677 17.6044 21.8869L18.748 23.6517C18.8919 23.8751 19.1381 23.9963 19.3843 23.9963C19.5244 23.9963 19.6683 23.9584 19.797 23.8751C20.1492 23.6479 20.2477 23.1783 20.0205 22.8261L18.8503 21.0198C21.3648 19.0089 22.9818 15.915 22.9818 12.4499C22.9818 6.39457 18.055 1.46777 11.9997 1.46777C5.94438 1.46777 1.01758 6.39451 1.01758 12.4498C1.01758 15.9149 2.63459 19.0088 5.14912 21.0235ZM11.9997 2.98246C17.2219 2.98246 21.4671 7.22765 21.4671 12.4498C21.4671 17.672 17.2219 21.9172 11.9997 21.9172C6.77752 21.9172 2.53233 17.672 2.53233 12.4498C2.53233 7.22765 6.77752 2.98246 11.9997 2.98246Z" fill="black" fill-opacity="0.2"/>
<path d="M5.14912 21.0235L3.97517 22.8299C3.74795 23.1821 3.84642 23.6516 4.19861 23.8788C4.32736 23.9621 4.46751 24 4.61138 24C4.86131 24 5.10371 23.8788 5.24759 23.6554L6.39503 21.8907C8.03854 22.8677 9.95475 23.432 11.9997 23.432C14.0485 23.432 15.9646 22.8677 17.6044 21.8869L18.748 23.6517C18.8919 23.8751 19.1381 23.9963 19.3843 23.9963C19.5244 23.9963 19.6683 23.9584 19.797 23.8751C20.1492 23.6479 20.2477 23.1783 20.0205 22.8261L18.8503 21.0198C21.3648 19.0089 22.9818 15.915 22.9818 12.4499C22.9818 6.39457 18.055 1.46777 11.9997 1.46777C5.94438 1.46777 1.01758 6.39451 1.01758 12.4498C1.01758 15.9149 2.63459 19.0088 5.14912 21.0235ZM11.9997 2.98246C17.2219 2.98246 21.4671 7.22765 21.4671 12.4498C21.4671 17.672 17.2219 21.9172 11.9997 21.9172C6.77752 21.9172 2.53233 17.672 2.53233 12.4498C2.53233 7.22765 6.77752 2.98246 11.9997 2.98246Z" fill="black" fill-opacity="0.2"/>
<path d="M5.14912 21.0235L3.97517 22.8299C3.74795 23.1821 3.84642 23.6516 4.19861 23.8788C4.32736 23.9621 4.46751 24 4.61138 24C4.86131 24 5.10371 23.8788 5.24759 23.6554L6.39503 21.8907C8.03854 22.8677 9.95475 23.432 11.9997 23.432C14.0485 23.432 15.9646 22.8677 17.6044 21.8869L18.748 23.6517C18.8919 23.8751 19.1381 23.9963 19.3843 23.9963C19.5244 23.9963 19.6683 23.9584 19.797 23.8751C20.1492 23.6479 20.2477 23.1783 20.0205 22.8261L18.8503 21.0198C21.3648 19.0089 22.9818 15.915 22.9818 12.4499C22.9818 6.39457 18.055 1.46777 11.9997 1.46777C5.94438 1.46777 1.01758 6.39451 1.01758 12.4498C1.01758 15.9149 2.63459 19.0088 5.14912 21.0235ZM11.9997 2.98246C17.2219 2.98246 21.4671 7.22765 21.4671 12.4498C21.4671 17.672 17.2219 21.9172 11.9997 21.9172C6.77752 21.9172 2.53233 17.672 2.53233 12.4498C2.53233 7.22765 6.77752 2.98246 11.9997 2.98246Z" fill="black" fill-opacity="0.2"/>
<path d="M5.14912 21.0235L3.97517 22.8299C3.74795 23.1821 3.84642 23.6516 4.19861 23.8788C4.32736 23.9621 4.46751 24 4.61138 24C4.86131 24 5.10371 23.8788 5.24759 23.6554L6.39503 21.8907C8.03854 22.8677 9.95475 23.432 11.9997 23.432C14.0485 23.432 15.9646 22.8677 17.6044 21.8869L18.748 23.6517C18.8919 23.8751 19.1381 23.9963 19.3843 23.9963C19.5244 23.9963 19.6683 23.9584 19.797 23.8751C20.1492 23.6479 20.2477 23.1783 20.0205 22.8261L18.8503 21.0198C21.3648 19.0089 22.9818 15.915 22.9818 12.4499C22.9818 6.39457 18.055 1.46777 11.9997 1.46777C5.94438 1.46777 1.01758 6.39451 1.01758 12.4498C1.01758 15.9149 2.63459 19.0088 5.14912 21.0235ZM11.9997 2.98246C17.2219 2.98246 21.4671 7.22765 21.4671 12.4498C21.4671 17.672 17.2219 21.9172 11.9997 21.9172C6.77752 21.9172 2.53233 17.672 2.53233 12.4498C2.53233 7.22765 6.77752 2.98246 11.9997 2.98246Z" fill="black" fill-opacity="0.2"/>
<path d="M14.5293 15.6725C14.6731 15.7975 14.8512 15.8581 15.0291 15.8581C15.2412 15.8581 15.4495 15.771 15.601 15.6006C15.8774 15.2863 15.8433 14.8091 15.529 14.5327L12.7569 12.1052V6.01201C12.7569 5.59545 12.4161 5.25464 11.9996 5.25464C11.583 5.25464 11.2422 5.59545 11.2422 6.01201V12.4498C11.2422 12.6695 11.3369 12.8778 11.4997 13.0217L14.5293 15.6725Z" fill="#1A2C50"/>
<path d="M14.5293 15.6725C14.6731 15.7975 14.8512 15.8581 15.0291 15.8581C15.2412 15.8581 15.4495 15.771 15.601 15.6006C15.8774 15.2863 15.8433 14.8091 15.529 14.5327L12.7569 12.1052V6.01201C12.7569 5.59545 12.4161 5.25464 11.9996 5.25464C11.583 5.25464 11.2422 5.59545 11.2422 6.01201V12.4498C11.2422 12.6695 11.3369 12.8778 11.4997 13.0217L14.5293 15.6725Z" fill="black" fill-opacity="0.2"/>
<path d="M14.5293 15.6725C14.6731 15.7975 14.8512 15.8581 15.0291 15.8581C15.2412 15.8581 15.4495 15.771 15.601 15.6006C15.8774 15.2863 15.8433 14.8091 15.529 14.5327L12.7569 12.1052V6.01201C12.7569 5.59545 12.4161 5.25464 11.9996 5.25464C11.583 5.25464 11.2422 5.59545 11.2422 6.01201V12.4498C11.2422 12.6695 11.3369 12.8778 11.4997 13.0217L14.5293 15.6725Z" fill="black" fill-opacity="0.2"/>
<path d="M14.5293 15.6725C14.6731 15.7975 14.8512 15.8581 15.0291 15.8581C15.2412 15.8581 15.4495 15.771 15.601 15.6006C15.8774 15.2863 15.8433 14.8091 15.529 14.5327L12.7569 12.1052V6.01201C12.7569 5.59545 12.4161 5.25464 11.9996 5.25464C11.583 5.25464 11.2422 5.59545 11.2422 6.01201V12.4498C11.2422 12.6695 11.3369 12.8778 11.4997 13.0217L14.5293 15.6725Z" fill="black" fill-opacity="0.2"/>
<path d="M14.5293 15.6725C14.6731 15.7975 14.8512 15.8581 15.0291 15.8581C15.2412 15.8581 15.4495 15.771 15.601 15.6006C15.8774 15.2863 15.8433 14.8091 15.529 14.5327L12.7569 12.1052V6.01201C12.7569 5.59545 12.4161 5.25464 11.9996 5.25464C11.583 5.25464 11.2422 5.59545 11.2422 6.01201V12.4498C11.2422 12.6695 11.3369 12.8778 11.4997 13.0217L14.5293 15.6725Z" fill="black" fill-opacity="0.2"/>
<path d="M2.53264 3.94057C2.72958 3.94057 2.92651 3.86481 3.07418 3.71334C3.97549 2.79312 4.99797 2.02436 6.10754 1.42604C6.47484 1.22911 6.61498 0.770925 6.41805 0.399763C6.22112 0.0324582 5.76294 -0.107684 5.39177 0.0892487C4.14213 0.759541 2.99848 1.61918 1.98738 2.65304C1.69577 2.95224 1.69957 3.43312 1.99876 3.72473C2.15016 3.86866 2.3433 3.94057 2.53264 3.94057Z" fill="#1A2C50"/>
<path d="M2.53264 3.94057C2.72958 3.94057 2.92651 3.86481 3.07418 3.71334C3.97549 2.79312 4.99797 2.02436 6.10754 1.42604C6.47484 1.22911 6.61498 0.770925 6.41805 0.399763C6.22112 0.0324582 5.76294 -0.107684 5.39177 0.0892487C4.14213 0.759541 2.99848 1.61918 1.98738 2.65304C1.69577 2.95224 1.69957 3.43312 1.99876 3.72473C2.15016 3.86866 2.3433 3.94057 2.53264 3.94057Z" fill="black" fill-opacity="0.2"/>
<path d="M2.53264 3.94057C2.72958 3.94057 2.92651 3.86481 3.07418 3.71334C3.97549 2.79312 4.99797 2.02436 6.10754 1.42604C6.47484 1.22911 6.61498 0.770925 6.41805 0.399763C6.22112 0.0324582 5.76294 -0.107684 5.39177 0.0892487C4.14213 0.759541 2.99848 1.61918 1.98738 2.65304C1.69577 2.95224 1.69957 3.43312 1.99876 3.72473C2.15016 3.86866 2.3433 3.94057 2.53264 3.94057Z" fill="black" fill-opacity="0.2"/>
<path d="M2.53264 3.94057C2.72958 3.94057 2.92651 3.86481 3.07418 3.71334C3.97549 2.79312 4.99797 2.02436 6.10754 1.42604C6.47484 1.22911 6.61498 0.770925 6.41805 0.399763C6.22112 0.0324582 5.76294 -0.107684 5.39177 0.0892487C4.14213 0.759541 2.99848 1.61918 1.98738 2.65304C1.69577 2.95224 1.69957 3.43312 1.99876 3.72473C2.15016 3.86866 2.3433 3.94057 2.53264 3.94057Z" fill="black" fill-opacity="0.2"/>
<path d="M2.53264 3.94057C2.72958 3.94057 2.92651 3.86481 3.07418 3.71334C3.97549 2.79312 4.99797 2.02436 6.10754 1.42604C6.47484 1.22911 6.61498 0.770925 6.41805 0.399763C6.22112 0.0324582 5.76294 -0.107684 5.39177 0.0892487C4.14213 0.759541 2.99848 1.61918 1.98738 2.65304C1.69577 2.95224 1.69957 3.43312 1.99876 3.72473C2.15016 3.86866 2.3433 3.94057 2.53264 3.94057Z" fill="black" fill-opacity="0.2"/>
<path d="M17.892 1.42598C19.0054 2.02051 20.0241 2.79306 20.9254 3.71328C21.073 3.86474 21.27 3.94051 21.4669 3.94051C21.6562 3.94051 21.8494 3.86854 21.997 3.72466C22.2962 3.43306 22.3 2.95211 22.0084 2.65298C21.0011 1.62291 19.8537 0.759478 18.604 0.0892487C18.2329 -0.107684 17.7746 0.0324582 17.5777 0.399763C17.3846 0.770861 17.5209 1.22904 17.892 1.42598Z" fill="#1A2C50"/>
<path d="M17.892 1.42598C19.0054 2.02051 20.0241 2.79306 20.9254 3.71328C21.073 3.86474 21.27 3.94051 21.4669 3.94051C21.6562 3.94051 21.8494 3.86854 21.997 3.72466C22.2962 3.43306 22.3 2.95211 22.0084 2.65298C21.0011 1.62291 19.8537 0.759478 18.604 0.0892487C18.2329 -0.107684 17.7746 0.0324582 17.5777 0.399763C17.3846 0.770861 17.5209 1.22904 17.892 1.42598Z" fill="black" fill-opacity="0.2"/>
<path d="M17.892 1.42598C19.0054 2.02051 20.0241 2.79306 20.9254 3.71328C21.073 3.86474 21.27 3.94051 21.4669 3.94051C21.6562 3.94051 21.8494 3.86854 21.997 3.72466C22.2962 3.43306 22.3 2.95211 22.0084 2.65298C21.0011 1.62291 19.8537 0.759478 18.604 0.0892487C18.2329 -0.107684 17.7746 0.0324582 17.5777 0.399763C17.3846 0.770861 17.5209 1.22904 17.892 1.42598Z" fill="black" fill-opacity="0.2"/>
<path d="M17.892 1.42598C19.0054 2.02051 20.0241 2.79306 20.9254 3.71328C21.073 3.86474 21.27 3.94051 21.4669 3.94051C21.6562 3.94051 21.8494 3.86854 21.997 3.72466C22.2962 3.43306 22.3 2.95211 22.0084 2.65298C21.0011 1.62291 19.8537 0.759478 18.604 0.0892487C18.2329 -0.107684 17.7746 0.0324582 17.5777 0.399763C17.3846 0.770861 17.5209 1.22904 17.892 1.42598Z" fill="black" fill-opacity="0.2"/>
<path d="M17.892 1.42598C19.0054 2.02051 20.0241 2.79306 20.9254 3.71328C21.073 3.86474 21.27 3.94051 21.4669 3.94051C21.6562 3.94051 21.8494 3.86854 21.997 3.72466C22.2962 3.43306 22.3 2.95211 22.0084 2.65298C21.0011 1.62291 19.8537 0.759478 18.604 0.0892487C18.2329 -0.107684 17.7746 0.0324582 17.5777 0.399763C17.3846 0.770861 17.5209 1.22904 17.892 1.42598Z" fill="black" fill-opacity="0.2"/>
</g>
<defs>
<clipPath id="clip0_1090_40140">
<rect width="24" height="24" fill="white"/>
</clipPath>
</defs>
</svg>
