<svg width="261" height="132" viewBox="0 0 261 132" fill="none" xmlns="http://www.w3.org/2000/svg">
<g clip-path="url(#clip0_2003_4)">
<mask id="mask0_2003_4" style="mask-type:luminance" maskUnits="userSpaceOnUse" x="0" y="0" width="261" height="132">
<path d="M260.89 0H0V131.825H260.89V0Z" fill="white"/>
</mask>
<g mask="url(#mask0_2003_4)">
<path d="M112.757 31.62C105.784 31.6202 98.9677 33.6881 93.17 37.5623C87.3722 41.4364 82.8536 46.9428 80.1853 53.385C77.517 59.8273 76.819 66.9161 78.1796 73.7551C79.5402 80.594 82.8981 86.876 87.8289 91.8065C92.7597 96.737 99.0418 100.095 105.881 101.455C112.72 102.815 119.809 102.117 126.251 99.4479C132.693 96.7793 138.199 92.2603 142.073 86.4623C145.947 80.6644 148.014 73.848 148.014 66.875C148.002 57.5281 144.284 48.5675 137.674 41.9584C131.065 35.3493 122.104 31.6314 112.757 31.62ZM112.757 87.12C108.753 87.12 104.84 85.9328 101.511 83.7086C98.1819 81.4843 95.5873 78.3229 94.0551 74.6241C92.5229 70.9253 92.1219 66.8552 92.9028 62.9285C93.6837 59.0018 95.6115 55.3949 98.4423 52.5637C101.273 49.7326 104.88 47.8045 108.807 47.0232C112.733 46.2419 116.803 46.6425 120.502 48.1743C124.201 49.7062 127.363 52.3005 129.587 55.6291C131.812 58.9578 133 62.8714 133 66.875C132.994 72.242 130.859 77.3874 127.064 81.1826C123.269 84.9777 118.124 87.1136 112.757 87.12Z" fill="#008BD8"/>
<path d="M258.376 90.65C254.505 84.484 253.122 76.344 253.761 71.493C253.965 69.9543 254.07 68.4041 254.075 66.852C254.079 58.8005 251.326 50.9905 246.274 44.7213C241.222 38.4521 234.175 34.1018 226.307 32.3941C218.439 30.6864 210.223 31.7243 203.027 35.3352C195.83 38.946 190.087 44.912 186.753 52.2407C183.419 59.5693 182.694 67.8187 184.7 75.6162C186.706 83.4137 191.322 90.2893 197.779 95.099C204.236 99.9087 212.145 102.362 220.191 102.052C228.236 101.742 235.933 98.6859 242 93.393C242.876 95.28 243.846 97.057 244.837 98.844L247.266 103.202L260.887 94.651L258.376 90.65ZM218.84 87.081C214.676 87.0851 210.612 85.8053 207.201 83.4159C203.791 81.0264 201.2 77.6437 199.782 73.7285C198.364 69.8132 198.188 65.556 199.277 61.5369C200.366 57.5177 202.668 53.9321 205.869 51.2686C209.07 48.6052 213.014 46.9933 217.164 46.6528C221.314 46.3123 225.469 47.2596 229.061 49.3657C232.653 51.4718 235.509 54.6342 237.238 58.4221C238.968 62.2099 239.488 66.439 238.727 70.533L238.276 70.616L238.2 72.716C236.932 76.8649 234.367 80.4983 230.883 83.0835C227.399 85.6687 223.178 87.0697 218.84 87.081Z" fill="#008BD8"/>
<path d="M52.493 67.993C52.493 72.8588 50.56 77.5253 47.1194 80.9659C43.6788 84.4066 39.0123 86.3395 34.1465 86.3395C29.2807 86.3395 24.6142 84.4066 21.1735 80.9659C17.7329 77.5253 15.8 72.8588 15.8 67.993V31.62H-2.79434e-05V66.02C-0.17502 75.5056 3.3986 84.6773 9.94497 91.544C12.9981 94.9264 16.7346 97.622 20.9072 99.4526C25.0799 101.283 29.5936 102.207 34.15 102.163C40.8317 102.242 47.3676 100.208 52.825 96.352C52.714 102.614 50.996 107.495 47.694 110.888C44.594 114.161 38.894 116.037 32.049 116.037H27.382V131.825L32.304 131.568C40.335 131.138 51.429 129.068 58.614 121.66C65.038 115.048 68.296 106.36 68.296 95.826V31.62H52.496L52.493 67.993Z" fill="#008BD8"/>
<path d="M173.175 74.957V0H157.325V76.532C157.412 80.9133 158.239 85.2484 159.771 89.354C160.974 92.6061 162.46 95.7465 164.212 98.739L166.641 103.094L180.262 94.539L177.748 90.539C174.795 85.8756 173.21 80.4767 173.175 74.957Z" fill="#008BD8"/>
</g>
</g>
<defs>
<clipPath id="clip0_2003_4">
<rect width="260.89" height="131.825" fill="white"/>
</clipPath>
</defs>
</svg>
