<svg width="24" height="24" viewBox="0 0 24 24" fill="none" xmlns="http://www.w3.org/2000/svg">
<path d="M12 23C8.521 23 5.352 21.241 3.515 18.295C3.504 18.281 3.494 18.267 3.486 18.254C3.259 17.889 3.049 17.489 2.844 17.035C2.283 15.748 2 14.393 2 13C1.985 12.937 1.5 9.688 1.5 8C1.5 3.173 5.791 2.582 6.793 2.51C7.328 2.033 9.264 0.5 12 0.5C16.36 0.5 22.5 2.827 22.5 8C22.5 9.657 22.015 12.935 21.995 13.073C22 14.388 21.718 15.747 21.16 17.038C20.937 17.529 20.693 17.978 20.43 18.383C20.411 18.412 20.389 18.44 20.364 18.464C18.584 21.276 15.436 23 12 23ZM4.316 17.696C4.327 17.71 4.337 17.723 4.345 17.737C5.996 20.406 8.857 22 12 22C15.092 22 17.925 20.449 19.578 17.852C19.598 17.822 19.62 17.792 19.646 17.767C19.826 17.476 20.046 17.071 20.245 16.633C20.745 15.477 21 14.251 21 13C21.01 12.894 21.5 9.584 21.5 8C21.5 3.517 15.945 1.5 12 1.5C9.239 1.5 7.372 3.335 7.354 3.354C7.26 3.447 7.133 3.499 7.001 3.5C6.817 3.501 2.5 3.57 2.5 8C2.5 9.614 2.99 12.893 2.995 12.926C3 14.254 3.255 15.476 3.759 16.63C3.936 17.026 4.12 17.377 4.316 17.696Z" fill="#1A2C50"/>
<path d="M21.288 15.5C21.071 15.5 20.871 15.357 20.808 15.138L19.623 10.998C12.389 10.938 9.45899 9.13603 8.29299 7.87703C7.53799 9.81703 5.22699 10.663 4.40299 10.908L3.19299 15.137C3.11699 15.404 2.83899 15.558 2.57499 15.48C2.30999 15.404 2.15599 15.127 2.23199 14.862L3.51999 10.362C3.56899 10.188 3.70999 10.054 3.88599 10.013C3.92299 10.004 7.53499 9.12203 7.53499 6.55903C7.53499 6.30603 7.72399 6.09303 7.97499 6.06303C8.22699 6.02603 8.45999 6.19403 8.52099 6.44003C8.52899 6.46703 9.65899 10 20 10C20.223 10 20.419 10.147 20.48 10.362L21.768 14.862C21.844 15.128 21.69 15.404 21.425 15.48C21.38 15.494 21.333 15.5 21.288 15.5Z" fill="#1A2C50"/>
<path d="M21.48 16C21.364 16 21.247 15.989 21.131 15.979C20.856 15.952 20.655 15.707 20.682 15.432C20.709 15.158 20.95 14.969 21.228 14.983C21.312 14.991 21.396 15 21.48 15C22.307 15 22.98 14.327 22.98 13.5C22.98 12.738 22.413 12.097 21.661 12.006C21.387 11.974 21.191 11.725 21.224 11.45C21.257 11.177 21.508 10.974 21.78 11.013C23.034 11.163 23.98 12.233 23.98 13.499C23.98 14.879 22.858 16 21.48 16Z" fill="#1A2C50"/>
<path d="M2.5 16C1.122 16 0 14.879 0 13.5C0 12.222 0.957 11.152 2.225 11.013C2.507 10.989 2.746 11.181 2.777 11.455C2.808 11.729 2.609 11.976 2.335 12.007C1.586 12.089 1 12.745 1 13.5C1 14.327 1.673 15 2.5 15C2.58 15 2.655 14.993 2.719 14.98C2.988 14.918 3.254 15.099 3.309 15.369C3.365 15.64 3.19 15.903 2.92 15.959C2.79 15.986 2.648 16 2.5 16Z" fill="#1A2C50"/>
<path d="M8 15C7.173 15 6.5 14.327 6.5 13.5C6.5 12.673 7.173 12 8 12C8.827 12 9.5 12.673 9.5 13.5C9.5 14.327 8.827 15 8 15ZM8 13C7.724 13 7.5 13.225 7.5 13.5C7.5 13.775 7.724 14 8 14C8.276 14 8.5 13.775 8.5 13.5C8.5 13.225 8.276 13 8 13Z" fill="#1A2C50"/>
<path d="M16 15C15.173 15 14.5 14.327 14.5 13.5C14.5 12.673 15.173 12 16 12C16.827 12 17.5 12.673 17.5 13.5C17.5 14.327 16.827 15 16 15ZM16 13C15.724 13 15.5 13.225 15.5 13.5C15.5 13.775 15.724 14 16 14C16.276 14 16.5 13.775 16.5 13.5C16.5 13.225 16.276 13 16 13Z" fill="#1A2C50"/>
<path d="M12 19.023C10.976 19.023 9.95103 18.633 9.17103 17.853C8.97603 17.658 8.97603 17.341 9.17103 17.146C9.36603 16.951 9.68303 16.951 9.87803 17.146C11.048 18.316 12.951 18.316 14.121 17.146C14.316 16.951 14.633 16.951 14.828 17.146C15.023 17.341 15.023 17.658 14.828 17.853C14.049 18.634 13.024 19.023 12 19.023Z" fill="#1A2C50"/>
</svg>
