<svg width="64" height="64" viewBox="0 0 64 64" fill="none" xmlns="http://www.w3.org/2000/svg">
<path d="M22.056 7.26399C21.248 6.16799 20.564 5.12399 19.816 4.13599C19.3 5.31199 18.888 6.43199 18.516 7.52799C17.484 7.89599 16.448 8.25999 15.332 8.71599C16.2894 9.23407 17.189 9.85219 18.016 10.56C17.992 11.704 18.008 12.848 18.1 14.16C18.9585 13.2375 19.8822 12.3779 20.864 11.588C21.944 12.216 23.0254 12.8453 24.108 13.476C24.02 12.328 23.412 10.176 23.368 9.88799C24.5 8.75199 25.772 7.10799 25.748 6.93199C24.5091 6.91206 23.2715 7.02335 22.056 7.26399Z" fill="#1A2C50"/>
<path d="M49.624 57.044C50.316 57.94 51.0094 58.836 51.704 59.732C52.0799 58.5883 52.3832 57.4219 52.612 56.24C53.6414 55.528 54.7309 54.907 55.868 54.384C54.676 53.912 53.512 53.548 52.348 53.184C51.9388 51.9376 51.6128 50.6655 51.372 49.376C50.56 50.424 49.78 51.464 48.804 52.588C47.5685 52.4012 46.3215 52.3009 45.072 52.288C45.9718 53.0485 46.7172 53.9746 47.268 55.016C46.7981 56.1396 46.4494 57.3103 46.228 58.508C47.2948 57.8808 48.4356 57.389 49.624 57.044Z" fill="#1A2C50"/>
<path d="M21.52 60.34C21.5825 60.3603 21.6484 60.3681 21.7139 60.3628C21.7795 60.3576 21.8433 60.3394 21.9017 60.3093C21.9602 60.2793 22.0121 60.238 22.0545 60.1878C22.0969 60.1376 22.129 60.0795 22.1488 60.0168C22.5278 58.8333 23.0029 57.6828 23.5696 56.5768C23.5996 56.5184 23.6178 56.4546 23.6232 56.3892C23.6285 56.3238 23.6209 56.2579 23.6009 56.1954C23.5808 56.1329 23.5485 56.0749 23.5061 56.0249C23.4636 55.9748 23.4116 55.9336 23.3532 55.9036C23.2948 55.8736 23.2311 55.8554 23.1656 55.8501C23.1002 55.8447 23.0343 55.8523 22.9718 55.8724C22.9093 55.8925 22.8514 55.9247 22.8013 55.9672C22.7512 56.0097 22.71 56.0616 22.68 56.12C22.0884 57.2748 21.5924 58.4762 21.1968 59.712C21.1566 59.8381 21.168 59.9751 21.2286 60.0928C21.2892 60.2106 21.394 60.2995 21.52 60.34Z" fill="#1A2C50"/>
<path d="M14.04 56.756C14.1593 56.7562 14.2747 56.7136 14.3652 56.636L17.8928 53.612C17.9427 53.5692 17.9837 53.5171 18.0135 53.4585C18.0432 53.3999 18.0611 53.3361 18.0662 53.2706C18.0713 53.2051 18.0634 53.1392 18.043 53.0768C18.0226 53.0143 17.9901 52.9565 17.9474 52.9066C17.9047 52.8567 17.8525 52.8157 17.794 52.7859C17.7354 52.7562 17.6715 52.7383 17.606 52.7332C17.5405 52.7281 17.4747 52.736 17.4122 52.7564C17.3497 52.7768 17.2919 52.8092 17.242 52.852L13.7144 55.876C13.6367 55.9424 13.5812 56.0311 13.5555 56.1301C13.5297 56.2291 13.5349 56.3336 13.5704 56.4295C13.6059 56.5254 13.67 56.6081 13.7539 56.6665C13.8379 56.7249 13.9377 56.7561 14.04 56.756Z" fill="#1A2C50"/>
<path d="M5.3244 24.9025C5.26183 24.8799 5.19539 24.87 5.12896 24.8735C5.06253 24.8769 4.99746 24.8936 4.93755 24.9225C4.87764 24.9514 4.8241 24.9919 4.78006 25.0418C4.73603 25.0916 4.70238 25.1498 4.68109 25.2128C4.6598 25.2758 4.6513 25.3424 4.65608 25.4088C4.66086 25.4751 4.67884 25.5398 4.70894 25.5991C4.73905 25.6584 4.78069 25.7112 4.83143 25.7542C4.88216 25.7972 4.94097 25.8296 5.0044 25.8497C6.0796 26.2137 7.15507 26.5802 8.2308 26.9493C8.28234 26.9667 8.33637 26.9758 8.3908 26.9761C8.50909 26.9757 8.62343 26.9334 8.71349 26.8567C8.80355 26.78 8.8635 26.6739 8.88269 26.5572C8.90188 26.4404 8.87906 26.3207 8.8183 26.2192C8.75753 26.1177 8.66275 26.0411 8.5508 26.0029C7.4764 25.6349 6.40094 25.2681 5.3244 24.9025Z" fill="#1A2C50"/>
<path d="M61 23.4704L57.384 22.88C57.3192 22.8695 57.2529 22.8718 57.189 22.8869C57.1251 22.902 57.0648 22.9296 57.0115 22.968C56.9583 23.0064 56.9131 23.0549 56.8786 23.1108C56.8441 23.1666 56.8209 23.2288 56.8104 23.2936C56.7999 23.3584 56.8023 23.4247 56.8174 23.4886C56.8325 23.5525 56.86 23.6128 56.8984 23.666C56.976 23.7736 57.0931 23.846 57.224 23.8672L60.84 24.4592C60.9048 24.4697 60.9711 24.4673 61.035 24.4522C61.0989 24.4371 61.1592 24.4096 61.2125 24.3712C61.2657 24.3328 61.3109 24.2842 61.3454 24.2284C61.3799 24.1725 61.4031 24.1104 61.4136 24.0456C61.4241 23.9808 61.4217 23.9145 61.4066 23.8506C61.3915 23.7867 61.364 23.7264 61.3256 23.6731C61.2872 23.6199 61.2387 23.5747 61.1828 23.5402C61.1269 23.5057 61.0648 23.4825 61 23.472V23.4704Z" fill="#1A2C50"/>
<path d="M60.566 15.5003C60.5235 15.3747 60.433 15.271 60.3142 15.2121C60.1954 15.1532 60.0581 15.1437 59.9324 15.1859L56.0444 16.4939C55.9319 16.5317 55.8365 16.6083 55.7752 16.7099C55.714 16.8116 55.6909 16.9318 55.7102 17.0489C55.7294 17.1661 55.7897 17.2725 55.8803 17.3493C55.9708 17.4261 56.0857 17.4681 56.2044 17.4679C56.2588 17.468 56.3129 17.4591 56.3644 17.4415L60.2528 16.1335C60.3782 16.0909 60.4817 16.0004 60.5404 15.8817C60.5991 15.763 60.6083 15.6258 60.566 15.5003Z" fill="#1A2C50"/>
<path d="M54.0956 8.3956L53.0716 9.5956C52.3948 10.3905 51.7176 11.1844 51.04 11.9772C50.9973 12.0271 50.9649 12.0849 50.9445 12.1474C50.9241 12.2098 50.9163 12.2757 50.9214 12.3412C50.9265 12.4066 50.9444 12.4705 50.9742 12.529C51.0039 12.5876 51.0449 12.6397 51.0948 12.6824C51.1447 12.7251 51.2025 12.7576 51.265 12.7779C51.3274 12.7983 51.3933 12.8061 51.4588 12.8011C51.5243 12.796 51.5881 12.778 51.6466 12.7483C51.7052 12.7185 51.7573 12.6775 51.8 12.6276C52.4784 11.8345 53.1561 11.04 53.8332 10.244L54.8564 9.044C54.902 8.99455 54.9372 8.9364 54.9598 8.87304C54.9824 8.80968 54.9919 8.74241 54.9879 8.67526C54.9839 8.60811 54.9664 8.54246 54.9364 8.48225C54.9064 8.42203 54.8646 8.36848 54.8135 8.3248C54.7623 8.28113 54.7028 8.24822 54.6387 8.22806C54.5745 8.2079 54.5069 8.2009 54.44 8.20747C54.373 8.21404 54.3081 8.23406 54.2491 8.26632C54.19 8.29857 54.1381 8.34241 54.0964 8.3952L54.0956 8.3956Z" fill="#1A2C50"/>
<path d="M13.3664 22.952C13.464 22.8622 13.5219 22.7374 13.5275 22.6049C13.533 22.4725 13.4857 22.3432 13.396 22.2456C12.6296 21.412 11.8643 20.5773 11.1 19.7416L10.7968 19.4104C10.7526 19.3614 10.6992 19.3217 10.6396 19.2935C10.5799 19.2652 10.5153 19.2491 10.4494 19.2459C10.3836 19.2428 10.3177 19.2527 10.2557 19.2751C10.1936 19.2975 10.1366 19.332 10.088 19.3766C10.0393 19.4211 9.99997 19.4748 9.97217 19.5346C9.94437 19.5945 9.92868 19.6592 9.92601 19.7251C9.92333 19.791 9.93373 19.8568 9.95659 19.9187C9.97945 19.9805 10.0143 20.0373 10.0592 20.0856L10.3628 20.4168C11.1292 21.2539 11.8949 22.0891 12.66 22.9224C12.7044 22.9708 12.7579 23.0099 12.8175 23.0376C12.877 23.0652 12.9415 23.0809 13.0071 23.0836C13.0727 23.0864 13.1382 23.0762 13.1998 23.0536C13.2615 23.031 13.3181 22.9965 13.3664 22.952Z" fill="#1A2C50"/>
<path d="M47.52 41.3079C46.672 37.4213 45.823 33.5346 44.9728 29.6479C41.6528 31.9303 38.2696 34.1815 34.904 36.3415C34.7892 36.4153 34.6604 36.4647 34.5257 36.4868C34.391 36.5089 34.2532 36.5031 34.1208 36.4699C30.1304 35.4699 26.1384 34.4031 22.248 33.2991C22.586 37.3439 22.918 41.3987 23.168 45.5119C26.756 47.9359 42.136 49.7519 47.52 41.3079Z" fill="#1A2C50"/>
<path d="M4.93002 49.1363C5.43864 49.5439 6.02436 49.8444 6.65202 50.0199C9.44517 47.5328 11.7634 44.5591 13.494 41.2435C12.8974 40.8673 12.3297 40.4471 11.7956 39.9863C11.25 40.5279 10.6932 41.0591 10.1156 41.5707C9.05186 42.5164 7.93684 43.4028 6.77562 44.2259C5.58987 45.0662 4.35589 45.8361 3.08002 46.5319C3.15708 46.7357 3.24375 46.9349 3.34002 47.1295C3.71629 47.9071 4.25914 48.5922 4.93002 49.1363Z" fill="#1A2C50"/>
<path d="M17.9412 32.0495C17.0784 33.1459 16.0632 34.5327 14.8612 36.2547C14.6684 36.5312 14.4709 36.8161 14.2688 37.1095C14.256 37.1067 14.2436 37.1023 14.2288 37.0999C14.1596 37.0879 14.0894 37.0823 14.0192 37.0831C13.998 37.0831 13.9792 37.0871 13.9564 37.0883C13.9088 37.0905 13.8614 37.0956 13.8144 37.1035C13.7884 37.1083 13.7632 37.1155 13.7376 37.1219C13.6976 37.1319 13.6552 37.1427 13.6148 37.1567C13.5884 37.1659 13.5624 37.1771 13.5348 37.1879C13.4968 37.2035 13.4588 37.2207 13.4216 37.2395C13.396 37.2527 13.3708 37.2667 13.3456 37.2795C13.3092 37.3007 13.274 37.3235 13.2388 37.3475C13.2156 37.3635 13.192 37.3799 13.1692 37.3971C13.1344 37.4239 13.1008 37.4523 13.068 37.4815C13.0476 37.4995 13.028 37.5171 13.0068 37.5359C12.9724 37.5691 12.9404 37.6047 12.9084 37.6403C12.8932 37.6575 12.8764 37.6743 12.8616 37.6919C12.8165 37.7462 12.7744 37.8029 12.7356 37.8619C12.6545 37.9856 12.5842 38.1161 12.5256 38.2519C12.4134 38.5227 12.3289 38.8041 12.2732 39.0919C12.287 39.0993 12.3003 39.1074 12.3132 39.1163C12.8604 39.6004 13.4469 40.038 14.0668 40.4247C14.4176 40.2025 14.7186 39.9101 14.9508 39.5659C15.0903 39.3514 15.19 39.1136 15.2452 38.8639C15.2716 38.7404 15.285 38.6145 15.2852 38.4883C15.2856 38.3622 15.2708 38.2365 15.2412 38.1139C15.2068 37.9713 15.1505 37.8349 15.0744 37.7095L15.0688 37.7019C15.2728 37.4056 15.4717 37.1183 15.6656 36.8399C16.9564 34.9875 18.0324 33.5235 18.93 32.3999C18.942 32.3847 18.9544 32.3703 18.9664 32.3551C19.1432 32.1315 19.3264 31.9123 19.4908 31.7151C19.5004 31.7056 19.5095 31.6956 19.518 31.6851C19.568 31.6263 19.6184 31.5731 19.6684 31.5151C20.4951 31.7591 21.3233 31.9991 22.1532 32.2351C23.1713 32.5249 24.1895 32.8104 25.2076 33.0915C26.2257 33.3725 27.2436 33.6491 28.2612 33.9211C30.2964 34.4651 32.3284 34.9911 34.3572 35.4991C37.8532 33.2551 41.3119 30.9537 44.7332 28.5951C47.5372 26.6751 50.3159 24.7151 53.0692 22.7151C45.6892 20.8431 38.4412 18.9871 31.2252 17.0071C24.633 20.6817 18.2836 24.7757 12.216 29.2639C14.3472 29.9335 16.4829 30.5819 18.6232 31.2091C18.4632 31.3991 18.3032 31.5891 18.1532 31.7799C18.0844 31.8659 18.012 31.9599 17.9412 32.0495Z" fill="#1A2C50"/>
</svg>
