<svg width="64" height="64" viewBox="0 0 64 64" fill="none" xmlns="http://www.w3.org/2000/svg">
<path fill-rule="evenodd" clip-rule="evenodd" d="M46.4521 21.2812L31.1546 25.3478C31.0489 25.3759 30.9378 25.3759 30.8322 25.3478L13.8063 20.8218C13.6414 20.778 13.5266 20.6286 13.5266 20.4578C13.5266 20.2872 13.6414 20.1378 13.8064 20.094L30.8323 15.5723C30.9378 15.5441 31.0489 15.5441 31.1544 15.5723L48.1803 20.094C48.3453 20.1378 48.4602 20.2872 48.4602 20.4578C48.4602 20.4626 48.4602 20.4672 48.4599 20.4719V29.1239L49.3998 29.6682C49.5162 29.7355 49.5877 29.8597 49.5877 29.994V35.527C49.5877 35.6696 49.507 35.8001 49.3794 35.8639C49.2516 35.9275 49.0989 35.9136 48.985 35.8279L47.456 34.6779L45.9272 35.8279C45.8131 35.9136 45.6604 35.9275 45.5327 35.8639C45.405 35.8001 45.3244 35.6696 45.3244 35.527V29.994C45.3244 29.8597 45.396 29.7355 45.5122 29.6682L46.4521 29.1239V21.2812ZM30.8255 2.95873C30.2721 2.98571 29.8008 2.55842 29.7738 2.00501C29.7467 1.45159 30.174 0.980252 30.7274 0.953272C31.578 0.911735 32.422 0.911735 33.2725 0.953272C33.8259 0.980252 34.2533 1.45159 34.2262 2.00501C34.1991 2.55842 33.7279 2.98571 33.1745 2.95873C32.3895 2.92033 31.6105 2.92033 30.8255 2.95873ZM24.7331 4.06995C24.2055 4.23923 23.6397 3.94835 23.4704 3.42079C23.3011 2.8931 23.592 2.32739 24.1196 2.1581C24.9303 1.89809 25.7454 1.67961 26.5776 1.49953C27.1191 1.38232 27.6539 1.72679 27.7711 2.26841C27.8883 2.8099 27.5438 3.34474 27.0022 3.46195C26.234 3.62822 25.4814 3.82988 24.7331 4.06995ZM19.136 6.72017C18.6703 7.02035 18.0485 6.88582 17.7483 6.42013C17.4483 5.95431 17.5827 5.3325 18.0485 5.03246C18.7642 4.57128 19.4951 4.14926 20.2525 3.75999C20.7453 3.50675 21.351 3.70126 21.6043 4.19406C21.8575 4.68686 21.663 5.2926 21.1702 5.54584C20.4712 5.90499 19.7966 6.29451 19.136 6.72017ZM14.4154 10.729C14.0432 11.1393 13.4079 11.1703 12.9974 10.7981C12.587 10.4259 12.556 9.79042 12.9282 9.38006C13.5002 8.74935 14.0969 8.15252 14.7278 7.58053C15.1383 7.20833 15.7736 7.23945 16.1458 7.64993C16.518 8.06041 16.4869 8.69577 16.0764 9.06797C15.4943 9.59591 14.9435 10.1468 14.4154 10.729ZM10.8934 15.8225C10.6402 16.3154 10.0346 16.5098 9.54177 16.2566C9.04884 16.0033 8.85446 15.3976 9.1077 14.9048C9.49684 14.1476 9.91887 13.4166 10.38 12.7009C10.6802 12.2351 11.3019 12.1006 11.7677 12.4007C12.2335 12.7008 12.3679 13.3226 12.0679 13.7884C11.6422 14.449 11.2527 15.1236 10.8934 15.8225ZM8.80966 21.6545C8.69245 22.196 8.15774 22.5406 7.61612 22.4235C7.07463 22.3064 6.73003 21.7716 6.84712 21.2301C7.02707 20.3979 7.24567 19.5827 7.50581 18.772C7.6751 18.2444 8.24081 17.9536 8.76837 18.1228C9.29593 18.2921 9.58682 18.8578 9.41753 19.3854C9.17747 20.1337 8.97568 20.8863 8.80966 21.6545ZM8.30632 27.8269C8.3333 28.3803 7.906 28.8515 7.35259 28.8786C6.79918 28.9056 6.32796 28.4783 6.30086 27.9249C6.25932 27.0743 6.25932 26.2303 6.30086 25.3799C6.32796 24.8265 6.79918 24.3992 7.35259 24.4262C7.906 24.4533 8.3333 24.9245 8.30632 25.4779C8.26792 26.2628 8.26792 27.0419 8.30632 27.8269ZM9.41753 33.9192C9.58682 34.4469 9.29593 35.0126 8.76837 35.1819C8.24081 35.3511 7.6751 35.0603 7.50581 34.5327C7.24567 33.722 7.02707 32.9068 6.84712 32.0747C6.73003 31.5332 7.07463 30.9984 7.61612 30.8813C8.15774 30.7642 8.69245 31.1088 8.80953 31.6503C8.97568 32.4184 9.17747 33.171 9.41753 33.9192ZM12.0679 39.5165C12.3679 39.9822 12.2334 40.604 11.7676 40.9041C11.3019 41.2043 10.6801 41.0696 10.38 40.6039C9.91887 39.8881 9.49684 39.1571 9.1077 38.3999C8.85446 37.907 9.04884 37.3014 9.54177 37.0481C10.0346 36.7948 10.6402 36.9893 10.8934 37.4821C11.2527 38.1811 11.6422 38.8557 12.0679 39.5165ZM53.1067 37.482C53.3599 36.9893 53.9657 36.7948 54.4585 37.0481C54.9513 37.3015 55.1457 37.9072 54.8923 38.4C54.503 39.1573 54.0811 39.8881 53.6199 40.6039C53.3199 41.0696 52.6981 41.2043 52.2323 40.9041C51.7666 40.604 51.6319 39.9822 51.9321 39.5165C52.3578 38.8557 52.7473 38.1811 53.1067 37.482ZM55.1903 31.6503C55.3075 31.1088 55.8423 30.7642 56.3839 30.8813C56.9254 30.9984 57.27 31.5332 57.1529 32.0747C56.9728 32.9068 56.7544 33.7221 56.4942 34.5328C56.3248 35.0604 55.7589 35.3511 55.2314 35.1819C54.7038 35.0124 54.4131 34.4466 54.5825 33.919C54.8227 33.1709 55.0243 32.4183 55.1903 31.6503ZM55.6938 25.4778C55.6668 24.9244 56.0942 24.4532 56.6477 24.4262C57.2011 24.3992 57.6723 24.8267 57.6993 25.3801C57.7407 26.2304 57.7407 27.0743 57.6993 27.9246C57.6723 28.478 57.2011 28.9055 56.6477 28.8786C56.0942 28.8516 55.6668 28.3804 55.6938 27.827C55.732 27.0419 55.732 26.2628 55.6938 25.4778ZM54.5825 19.3856C54.4131 18.8581 54.7038 18.2923 55.2314 18.1228C55.7589 17.9536 56.3248 18.2443 56.4942 18.7719C56.7544 19.5825 56.9728 20.3979 57.1529 21.2301C57.27 21.7716 56.9254 22.3064 56.3838 22.4235C55.8423 22.5406 55.3074 22.196 55.1903 21.6545C55.0242 20.8863 54.8227 20.1338 54.5825 19.3856ZM51.9321 13.7884C51.6319 13.3226 51.7665 12.7008 52.2323 12.4007C52.698 12.1006 53.3198 12.2351 53.6199 12.7009C54.081 13.4166 54.503 14.1474 54.8923 14.9046C55.1457 15.3974 54.9513 16.0032 54.4585 16.2566C53.9657 16.5098 53.3599 16.3154 53.1067 15.8226C52.7473 15.1236 52.3578 14.449 51.9321 13.7884ZM47.9235 9.06797C47.5131 8.69577 47.482 8.06041 47.8542 7.64993C48.2264 7.23945 48.8617 7.20833 49.2722 7.58053C49.9031 8.15252 50.4996 8.74935 51.0717 9.38006C51.444 9.79042 51.413 10.4259 51.0026 10.7981C50.5921 11.1703 49.9568 11.1393 49.5844 10.729C49.0565 10.1468 48.5057 9.59591 47.9235 9.06797ZM42.8298 5.54584C42.337 5.2926 42.1426 4.68686 42.3959 4.19406C42.6491 3.70126 43.2548 3.50675 43.7476 3.76011C44.5048 4.14926 45.236 4.57128 45.9515 5.03246C46.4173 5.33263 46.5517 5.95443 46.2515 6.42013C45.9514 6.88582 45.3296 7.02035 44.8639 6.72017C44.2034 6.29451 43.5287 5.90499 42.8298 5.54584ZM36.9978 3.46195C36.4563 3.34474 36.1118 2.8099 36.229 2.26828C36.3462 1.72679 36.8811 1.38232 37.4226 1.49953C38.2546 1.67961 39.0697 1.89809 39.8804 2.1581C40.408 2.32739 40.699 2.8931 40.5297 3.42066C40.3604 3.94835 39.7947 4.23923 39.267 4.06995C38.5186 3.82988 37.7659 3.62822 36.9978 3.46195ZM43.6786 24.096V33.5097C28.5383 36.279 33.4484 36.279 18.3081 33.5097V24.096L30.3163 27.2883C30.76 27.4062 31.2267 27.4062 31.6705 27.2883L43.6786 24.096ZM35.7618 53.2863V62.7016C35.7618 62.8477 35.6772 62.9806 35.545 63.0426C35.4126 63.1044 35.2565 63.0842 35.1442 62.9906L32 60.3676L28.8558 62.9906C28.7435 63.0842 28.5874 63.1044 28.455 63.0426C28.3228 62.9806 28.2382 62.8477 28.2382 62.7016V53.2863H35.7618ZM57.6006 43.425C59.7678 43.425 61.5272 45.1846 61.5272 47.3518C61.5272 49.519 59.7678 51.2785 57.6006 51.2785C55.4334 51.2785 53.6739 49.519 53.6739 47.3518C53.6739 45.1846 55.4334 43.425 57.6006 43.425ZM53.1524 43.425C52.2275 44.4716 51.6661 45.8466 51.6661 47.3518C51.6661 48.8568 52.2275 50.2318 53.1524 51.2785H38.0021C35.8349 51.2785 34.0755 49.519 34.0755 47.3518C34.0755 45.1846 35.8349 43.425 38.0021 43.425H53.1524ZM33.5538 43.425C32.6291 44.4716 32.0676 45.8466 32.0676 47.3518C32.0676 48.8568 32.6291 50.2318 33.5538 51.2785H29.2417C27.0745 51.2785 25.315 49.519 25.315 47.3518C25.315 45.1846 27.0745 43.425 29.2417 43.425H33.5538ZM24.7935 43.425C23.8686 44.4716 23.3072 45.8466 23.3072 47.3518C23.3072 48.8568 23.8686 50.2318 24.7935 51.2785H6.39937C4.23215 51.2785 2.47278 49.519 2.47278 47.3518C2.47278 45.1846 4.23215 43.425 6.39937 43.425H24.7935Z" fill="#1A2C50"/>
</svg>
