<svg width="24" height="24" viewBox="0 0 24 24" fill="none" xmlns="http://www.w3.org/2000/svg">
<g clip-path="url(#clip0_704_9366)">
<path d="M12 24C18.6274 24 24 18.6274 24 12C24 5.37258 18.6274 0 12 0C5.37258 0 0 5.37258 0 12C0 18.6274 5.37258 24 12 24Z" fill="#012169"/>
<path d="M10.496 0.104L6 4.6008L4.248 2.848C3.74417 3.2757 3.27621 3.74393 2.8488 4.248L4.6008 6L0.104 10.496C0.0381339 10.9947 0.00339999 11.497 0 12H1.3992L6 7.3992L10.6008 12H12V10.6008L7.3992 6L12 1.3992V0C11.497 0.00339999 10.9947 0.0381339 10.496 0.104Z" fill="white"/>
<path d="M7.19997 1.00476C6.34787 1.38034 5.54244 1.85394 4.79997 2.41596V3.99996H3.07357C2.02761 5.16508 1.22036 6.52408 0.697571 7.99996H4.79997V12H7.19997V7.99996H12V3.99996H7.19997V1.00476Z" fill="white"/>
<path d="M12 0C11.668 0 11.3424 0.0232 11.0168 0.0496L5.5336 5.5336L3.5144 3.5144C3.3592 3.6744 3.2176 3.8392 3.0704 4.0032L5.5336 6.4664L0 12H0.9328L6.4664 6.4664L12 12V11.0664L6.4664 5.5336L12 0Z" fill="#C8102E"/>
<path d="M6.72002 1.23682C6.22147 1.47651 5.7403 1.75078 5.28002 2.05762V4.80002H2.41602C1.854 5.54249 1.38041 6.34792 1.00482 7.20002H5.28002V12H6.72002V7.20002H12V4.80002H6.72002V1.23682Z" fill="#C8102E"/>
<path d="M6.36083 17.4801L7.09043 18.2481L6.94482 17.1993L8.00003 17.1073L7.08883 16.5665L7.67523 15.6849L6.68483 16.0593L6.36083 15.0513L6.03603 16.0593L5.04563 15.6849L5.63203 16.5665L4.72083 17.1073L5.77603 17.1993L5.63123 18.2481L6.36083 17.4801Z" fill="white"/>
<path d="M14.2752 11.9928L14.7384 12.4808L14.6464 11.8144L15.3168 11.756L14.7384 11.4128L15.1104 10.852L14.4816 11.0904L14.2752 10.4504L14.0696 11.0904L13.44 10.852L13.8128 11.4128L13.2344 11.756L13.904 11.8144L13.812 12.4808L14.2752 11.9928Z" fill="white"/>
<path d="M18.0136 7.94322L18.4776 8.43042L18.3848 7.76402L19.0552 7.70562L18.4768 7.36242L18.8488 6.80242L18.22 7.04082L18.0136 6.40002L17.808 7.04082L17.1792 6.80242L17.5512 7.36242L16.9728 7.70562L17.6432 7.76402L17.5504 8.43042L18.0136 7.94322Z" fill="white"/>
<path d="M21.3368 10.9961L21.8008 11.4841L21.708 10.8177L22.3784 10.7593L21.8 10.4161L22.172 9.85528L21.5432 10.0937L21.3368 9.45288L21.1312 10.0937L20.5024 9.85528L20.8744 10.4161L20.296 10.7593L20.9664 10.8177L20.8736 11.4841L21.3368 10.9961Z" fill="white"/>
<path d="M18.0136 17.912L18.4776 18.4L18.3848 17.7336L19.0552 17.6752L18.4768 17.332L18.8488 16.772L18.22 17.0096L18.0136 16.3696L17.808 17.0096L17.1792 16.772L17.5512 17.332L16.9728 17.6752L17.6432 17.7336L17.5504 18.4L18.0136 17.912Z" fill="white"/>
<path d="M19.5096 13.3529L19.8752 13.5801L19.7728 13.1617L20.1016 12.8833L19.672 12.8521L19.5096 12.4529L19.3464 12.8521L18.9168 12.8833L19.2464 13.1617L19.1432 13.5801L19.5096 13.3529Z" fill="white"/>
</g>
<defs>
<clipPath id="clip0_704_9366">
<rect width="24" height="24" fill="white"/>
</clipPath>
</defs>
</svg>
