<svg width="24" height="24" viewBox="0 0 24 24" fill="none" xmlns="http://www.w3.org/2000/svg">
<g clip-path="url(#clip0_704_9358)">
<path d="M12.0001 23.9995C18.6272 23.9995 23.9999 18.6264 23.9999 11.9998C23.9999 5.37318 18.6277 0 12.0001 0C5.3726 0 0.000366211 5.37364 0.000366211 11.9998C0.000366211 18.6259 5.37307 23.9995 12.0001 23.9995Z" fill="white"/>
<path fill-rule="evenodd" clip-rule="evenodd" d="M22.2265 5.73412H11.4605V2.60059H19.46C20.5584 3.47512 21.4948 4.53574 22.2265 5.73412ZM23.9997 11.9998H11.467V8.86718H23.5868C23.8618 9.88864 24.0006 10.942 23.9997 11.9998ZM12 23.9995C14.7129 24.0058 17.3468 23.0864 19.4665 21.3933H4.53387C6.6533 23.0867 9.28715 24.0061 12 23.9995ZM22.2396 18.2668H1.76033C1.16301 17.2927 0.709439 16.2375 0.413635 15.1338H23.5863C23.2906 16.2375 22.837 17.2928 22.2396 18.2668Z" fill="#D80027"/>
<path fill-rule="evenodd" clip-rule="evenodd" d="M5.57135 1.86747H5.56057V1.87497L5.57135 1.86747ZM5.57135 1.86747H6.65649L5.63416 2.60105L6.02087 3.80103L5.00089 3.06745L3.98748 3.80103L4.32075 2.76558C3.42503 3.51526 2.64352 4.39167 2.00095 5.36709H2.35438L1.70752 5.83583L1.41409 6.35145L1.72065 7.30487L1.14081 6.883L0.740977 7.81392L1.07425 8.85921H2.33985L1.33393 9.60029L1.72065 10.8003L0.700666 10.0667L0.100677 10.5064C0.0337234 11.0014 0.00021063 11.5003 0.000366754 11.9998H12.0001V1.01072e-05C9.72302 -0.00295146 7.49249 0.644982 5.57135 1.86747ZM6.01853 10.7942L6.02744 10.8012H6.02087L6.01853 10.7942ZM5.63369 9.60076L6.01853 10.7942L5.00043 10.0676L3.98045 10.8012L4.36716 9.60123L3.34718 8.86765H4.61278L4.99949 7.66767L5.3862 8.86765H6.6518L5.63369 9.60076ZM5.64073 6.1077L6.02744 7.30768L5.00746 6.5741L3.98748 7.30768L4.37419 6.1077L3.35421 5.37412H4.61981L5.00652 4.17415L5.39323 5.37412H6.65883L5.64073 6.1077ZM9.31378 10.0676L10.3338 10.8012L9.94705 9.60123L10.9689 8.86765H9.7033L9.31659 7.66767L8.92988 8.86765H7.66428L8.68426 9.60123L8.29755 10.8012L9.31378 10.0676ZM9.94705 6.1077L10.3338 7.30768L9.31378 6.5741L8.2938 7.30768L8.68051 6.1077L7.66053 5.37412H8.92613L9.31284 4.17415L9.69955 5.37412H10.9652L9.94705 6.1077ZM10.3338 3.81415L9.94705 2.61418L10.9689 1.8806H9.7033L9.31659 0.680622L8.92988 1.8806H7.66428L8.68426 2.61418L8.29755 3.81415L9.31753 3.08057L10.3338 3.81415Z" fill="#0052B4"/>
</g>
<defs>
<clipPath id="clip0_704_9358">
<rect width="24" height="24" fill="white"/>
</clipPath>
</defs>
</svg>
